<?xml version="1.0" standalone="no"?>
<!DOCTYPE svg PUBLIC "-//W3C//DTD SVG 20010904//EN"
 "http://www.w3.org/TR/2001/REC-SVG-20010904/DTD/svg10.dtd">
<svg version="1.0" xmlns="http://www.w3.org/2000/svg"
 width="240.000000pt" height="360.000000pt" viewBox="0 0 240.000000 360.000000"
 preserveAspectRatio="xMidYMid meet">

<g transform="translate(0.000000,360.000000) scale(0.100000,-0.100000)"
fill="#000000" stroke="none">
<path d="M627 3240 c-90 -57 -154 -196 -145 -315 11 -126 80 -204 207 -230
l55 -11 -59 -65 c-33 -35 -71 -67 -85 -70 -15 -4 -18 -7 -7 -8 21 -1 21 -7 2
-61 -8 -23 -15 -58 -15 -76 0 -21 -5 -34 -12 -34 -10 0 -10 -2 -2 -8 7 -4 17
-25 23 -47 6 -22 20 -58 31 -80 21 -39 19 -38 -40 23 -40 40 -60 68 -56 77 13
35 28 147 22 171 -9 35 -46 48 -68 23 -16 -19 -17 -17 -33 36 -24 86 -83 111
-107 47 l-11 -28 -23 23 c-28 28 -45 29 -69 3 -13 -14 -16 -28 -11 -55 7 -34
6 -35 -14 -23 -40 25 -72 -24 -56 -87 3 -13 17 -36 30 -52 13 -15 26 -44 30
-64 3 -20 20 -56 36 -80 16 -24 30 -52 30 -61 0 -9 11 -46 23 -82 44 -120 159
-252 286 -331 57 -35 59 -38 50 -67 -4 -17 -15 -38 -23 -47 -19 -21 -46 -96
-46 -127 0 -13 -12 -58 -26 -100 -31 -95 -42 -227 -25 -316 20 -101 62 -177
136 -247 l65 -60 -31 -51 c-63 -103 -87 -214 -56 -266 25 -42 93 -94 125 -94
17 0 34 5 37 10 3 6 21 10 39 10 70 0 132 116 193 360 7 28 20 41 66 69 78 46
244 72 334 52 74 -17 137 -77 148 -140 21 -125 129 -115 332 28 96 68 197 163
217 205 25 53 20 83 -21 133 l-37 45 -88 -4 c-48 -2 -85 -1 -82 3 2 4 -1 31
-7 59 -13 61 -55 114 -104 130 -33 11 -35 14 -36 58 0 26 -4 70 -9 97 -4 28
-7 51 -5 53 1 1 38 -11 81 -28 55 -22 88 -42 107 -66 30 -36 69 -60 121 -75
41 -12 80 13 73 47 -3 19 -1 23 12 20 56 -17 67 -17 85 3 12 13 16 28 13 42
-3 12 -2 30 4 41 7 12 5 26 -5 46 -18 34 -43 52 -111 77 -36 14 -70 40 -121
91 -78 79 -178 149 -281 195 l-65 30 49 24 c75 38 173 152 173 202 0 17 11 16
38 -3 13 -9 26 -13 29 -10 3 3 -8 13 -25 23 -29 16 -31 22 -34 86 l-3 69 45
-6 c45 -5 28 5 -30 18 -29 6 -83 98 -94 157 -6 36 -6 37 31 44 76 14 160 78
196 150 46 93 42 221 -10 317 -39 71 -81 101 -152 106 -85 6 -144 -23 -230
-114 l-70 -73 -40 16 c-38 15 -39 17 -26 37 19 26 19 55 1 62 -8 3 -31 1 -51
-5 -38 -10 -38 -11 -19 44 2 6 0 16 -5 24 -14 22 -60 4 -138 -53 -63 -47 -80
-54 -135 -60 -34 -4 -78 -14 -97 -22 -23 -10 -37 -11 -39 -4 -11 31 -104 160
-137 189 -80 70 -169 81 -248 31z m167 -4 c49 -20 100 -70 144 -139 56 -88 57
-98 20 -122 -18 -11 -51 -44 -75 -73 l-43 -53 -11 28 c-6 15 -14 78 -18 138
-5 71 -14 122 -25 143 -19 37 -69 72 -106 73 -23 0 -23 1 -5 9 31 13 82 12
119 -4z m-56 -49 c13 -12 29 -33 34 -47 9 -22 27 -230 20 -230 -2 0 -16 10
-31 21 -16 12 -34 18 -40 15 -20 -13 -12 -73 14 -104 23 -27 23 -30 7 -37 -15
-6 -14 -9 9 -29 26 -22 26 -24 9 -46 -15 -20 -22 -21 -61 -15 -138 23 -216
138 -191 283 16 95 72 189 127 213 29 12 76 2 103 -24z m672 -47 c0 -20 -30
-69 -52 -86 -13 -9 -16 -14 -8 -12 88 30 131 41 136 36 21 -21 -67 -87 -118
-89 -23 0 -23 0 1 -10 17 -7 34 -6 53 2 37 15 81 5 140 -32 99 -64 159 -168
198 -344 13 -58 35 -122 52 -152 l29 -53 -63 -1 c-35 -1 -76 -5 -93 -9 -20 -5
2 -7 63 -7 107 2 112 -1 112 -75 l0 -48 -49 19 c-54 22 -153 42 -146 31 3 -4
24 -11 47 -14 24 -4 67 -17 96 -31 49 -23 51 -26 42 -50 -27 -71 -87 -140
-160 -182 -50 -30 -173 -62 -263 -69 -90 -8 -113 -24 -34 -24 l54 0 17 -60 c9
-33 15 -64 12 -69 -3 -5 -27 -4 -53 2 -27 5 -121 10 -210 11 -90 0 -163 5
-163 9 0 5 -7 15 -15 23 -8 9 -15 26 -15 38 0 13 -3 38 -6 55 -6 28 -4 31 17
31 13 1 -14 15 -61 33 -221 84 -355 204 -363 323 -2 36 0 38 33 46 19 4 71 8
115 9 65 1 74 3 50 11 -33 10 -144 2 -183 -13 -25 -9 -25 -9 -19 36 4 25 13
58 22 74 l15 29 55 -14 c30 -8 75 -23 101 -34 26 -11 49 -19 51 -16 7 7 -35
27 -121 56 l-81 27 47 47 c29 29 66 83 97 144 92 179 190 258 353 286 64 11
87 21 158 70 80 55 110 67 110 46z m516 -11 c11 -12 7 -14 -26 -14 -30 -1 -47
-8 -71 -30 -37 -36 -46 -57 -65 -155 -15 -78 -32 -130 -43 -130 -3 0 -17 21
-30 46 -14 25 -44 63 -69 84 l-44 39 74 74 c57 58 84 79 123 91 56 18 130 15
151 -5z m35 -46 c60 -36 89 -192 53 -295 -29 -86 -109 -157 -196 -173 -35 -7
-36 -6 -42 30 -5 23 -3 42 5 51 9 11 8 15 -3 19 -12 5 -7 14 18 39 58 58 56
124 -2 97 -25 -11 -26 -10 -21 11 3 13 11 52 17 88 14 79 32 115 68 134 36 20
68 20 103 -1z m-1178 -189 c50 -39 56 -54 31 -75 -20 -16 -41 -4 -71 41 -23
33 -30 70 -15 70 5 0 30 -16 55 -36z m1047 -68 c0 -18 -36 -63 -62 -77 -16 -8
-23 -8 -29 2 -16 25 -9 38 34 63 48 30 57 31 57 12z m-1040 -34 c0 -14 -11
-21 -26 -15 -21 8 -17 23 6 23 11 0 20 -4 20 -8z m-388 -179 c19 -21 26 -45
37 -113 8 -47 6 -54 -15 -75 -16 -16 -24 -35 -23 -57 l1 -33 10 35 c5 19 18
44 28 55 10 11 25 37 34 58 16 39 42 49 53 21 10 -27 -16 -165 -38 -203 -16
-28 -17 -32 -3 -19 16 16 21 13 90 -50 40 -37 111 -92 158 -122 80 -51 86 -58
101 -105 20 -66 34 -174 23 -181 -4 -3 -8 -20 -8 -38 0 -61 -107 -155 -177
-156 -24 0 -27 9 -17 60 4 18 15 35 26 39 15 5 6 14 -47 44 -146 84 -284 239
-320 359 -20 68 -19 77 5 71 11 -3 20 0 20 6 0 6 -8 11 -18 11 -36 0 -92 77
-92 125 0 9 -11 31 -24 48 -48 63 -57 127 -16 127 10 0 35 -20 56 -45 l39 -45
43 21 c27 14 41 27 38 35 -10 26 -18 113 -13 129 8 20 30 19 49 -2z m-104 -26
c19 -20 57 -106 50 -112 -8 -6 -47 -25 -52 -25 -11 0 -56 100 -56 123 0 43 25
49 58 14z m630 -579 c57 -22 66 -33 77 -111 l7 -47 -43 0 c-24 0 -54 -3 -65
-6 -20 -5 -22 0 -29 52 -4 31 -13 77 -20 101 -12 41 -12 44 3 38 9 -4 41 -16
70 -27z m777 -67 c115 -54 188 -106 271 -193 43 -46 83 -78 100 -82 56 -14
115 -48 129 -76 8 -15 12 -30 9 -33 -3 -3 -26 6 -52 20 l-47 25 30 -25 c17
-15 33 -26 38 -27 4 0 12 -12 18 -27 7 -20 6 -30 -5 -41 -12 -12 -21 -11 -72
12 -31 14 -59 24 -61 22 -3 -2 5 -18 17 -34 27 -36 20 -62 -15 -62 -47 0 -135
57 -135 87 0 8 -8 16 -17 19 -61 20 -180 69 -189 78 -6 6 -16 29 -22 51 -5 22
-16 56 -23 75 -7 19 -21 60 -32 90 -11 30 -28 76 -38 102 -16 44 -15 52 10 57
1 1 40 -16 86 -38z m-112 -18 c8 -21 19 -55 25 -76 11 -38 11 -38 -16 -33 -15
3 -44 8 -65 12 -41 7 -50 19 -62 87 -7 33 -5 36 22 40 74 11 80 9 96 -30z
m-564 -101 c18 -33 25 -137 10 -149 -21 -16 -148 -32 -158 -19 -23 30 -22 161
2 164 7 1 35 6 62 11 74 12 74 12 84 -7z m396 -30 l40 -7 7 -64 c4 -34 12 -69
18 -76 13 -15 54 -30 112 -39 24 -5 42 -15 53 -34 10 -15 29 -39 43 -54 20
-22 26 -40 30 -96 4 -67 6 -70 33 -76 47 -9 89 -55 104 -114 8 -29 12 -59 9
-67 -3 -8 -29 -32 -58 -54 -56 -44 -103 -97 -129 -148 -28 -53 -19 -49 27 14
73 99 180 173 251 173 19 0 35 -2 35 -5 0 -18 -34 -67 -70 -99 -23 -21 -39
-40 -37 -43 3 -3 31 19 61 49 41 39 56 61 56 81 0 20 5 27 20 27 20 0 60 -33
60 -49 0 -25 -25 -70 -58 -103 -20 -21 -32 -38 -26 -38 14 0 69 60 87 95 l15
30 7 -28 c4 -16 2 -40 -5 -57 -31 -74 -290 -275 -394 -305 -78 -23 -100 -11
-121 64 -24 85 -96 151 -165 151 -29 0 -25 17 6 24 15 4 25 9 23 11 -2 2 -39
-5 -81 -15 -43 -10 -108 -22 -145 -25 -37 -4 -86 -17 -108 -28 -67 -33 -145
-88 -157 -110 -11 -21 -10 -21 15 -4 l25 16 -23 -87 c-42 -158 -101 -262 -147
-262 -27 0 -41 46 -29 94 7 29 7 36 -2 27 -7 -7 -12 -40 -12 -74 0 -61 -1 -62
-29 -65 -41 -5 -66 22 -66 74 0 23 5 55 10 70 6 15 8 29 6 32 -7 7 -26 -44
-35 -93 l-7 -40 -18 34 c-28 54 -17 124 37 224 28 52 49 81 58 78 8 -2 34 -5
59 -7 l45 -5 -58 20 c-220 73 -321 336 -235 611 l24 75 69 5 c80 6 145 37 192
94 26 31 34 34 103 40 41 4 85 14 98 22 23 15 24 20 18 79 -6 60 -5 64 16 69
30 6 291 -3 343 -12z m165 7 c38 -8 51 -16 55 -32 28 -125 27 -147 -6 -147
-36 0 -118 22 -128 34 -6 7 -14 45 -17 84 l-7 72 26 0 c14 0 49 -5 77 -11z
m-752 -190 c-27 -36 -85 -77 -129 -89 -41 -13 -108 -3 -116 16 -7 20 28 108
38 92 10 -15 83 -11 119 7 14 7 41 29 60 49 l35 35 7 -40 c6 -33 3 -46 -14
-70z m869 -45 l6 -39 -27 33 c-23 27 -26 35 -15 48 16 20 28 6 36 -42z"/>
<path d="M1420 2955 c16 -20 -8 -30 -53 -21 -23 4 -28 3 -17 -4 19 -12 77 -13
84 -1 8 12 -4 41 -16 41 -6 0 -5 -6 2 -15z"/>
<path d="M1016 2861 c-16 -11 -34 -28 -40 -38 -9 -17 -8 -17 16 -1 35 23 88
31 121 19 22 -8 27 -8 27 4 0 36 -78 46 -124 16z"/>
<path d="M1482 2774 c-28 -19 -30 -39 -3 -24 30 15 62 12 104 -10 45 -24 48
-11 6 24 -35 29 -74 33 -107 10z"/>
<path d="M997 2660 c-32 -38 -42 -81 -27 -125 27 -83 133 -71 155 18 26 104
-66 181 -128 107z m98 -41 c0 -15 -7 -25 -18 -27 -22 -4 -33 24 -17 43 18 21
35 13 35 -16z"/>
<path d="M1461 2554 c-18 -14 -36 -35 -42 -45 -9 -18 -8 -18 23 1 37 23 136
28 156 8 6 -6 15 -8 19 -4 5 4 -7 21 -25 37 -42 38 -89 39 -131 3z"/>
<path d="M1231 2496 c9 -8 98 -13 93 -5 -3 5 -26 9 -51 9 -26 0 -44 -2 -42 -4z"/>
<path d="M1215 2440 c-9 -15 21 -59 50 -72 19 -8 30 -7 57 9 42 25 48 50 13
63 -35 13 -112 13 -120 0z m99 -15 c27 -6 28 -7 11 -25 -23 -25 -47 -25 -69
-1 -20 22 -13 44 12 37 10 -2 30 -7 46 -11z"/>
<path d="M1034 2400 c-27 -11 -40 -30 -17 -24 22 6 63 -62 63 -104 0 -57 29
-129 65 -161 73 -64 160 -32 222 81 18 34 39 56 65 69 22 11 44 31 50 44 6 13
15 22 19 19 20 -12 7 16 -13 30 -26 19 -47 21 -30 4 20 -20 14 -45 -16 -66
-59 -42 -133 -35 -158 17 -8 15 -14 19 -19 11 -16 -26 -74 -41 -115 -30 -49
13 -94 64 -85 97 6 25 2 26 -31 13z m257 -131 c36 -26 36 -35 -1 -54 -39 -20
-56 -19 -80 7 -28 30 -25 42 13 55 17 5 34 11 35 12 2 0 17 -8 33 -20z m-41
-104 c15 -8 32 -20 39 -29 10 -12 7 -17 -19 -31 -41 -21 -81 -12 -120 27 -17
16 -30 33 -30 38 0 23 83 19 130 -5z"/>
<path d="M940 1787 c-20 -10 -26 -21 -28 -55 -3 -40 -2 -42 25 -42 64 0 73 8
73 61 0 44 -2 49 -22 49 -13 0 -34 -6 -48 -13z m60 -37 c0 -22 -4 -40 -9 -40
-5 0 -23 -3 -40 -6 -30 -6 -31 -5 -31 29 0 29 5 37 28 45 47 18 52 15 52 -28z"/>
<path d="M1834 901 c-38 -23 -74 -68 -74 -92 0 -45 93 -4 130 56 34 55 5 73
-56 36z m56 -10 c0 -27 -92 -102 -107 -87 -13 13 10 56 39 75 34 21 68 28 68
12z"/>
<path d="M1537 1764 c-12 -13 -8 -71 7 -83 8 -7 30 -15 50 -18 l36 -6 0 39 c0
22 -4 44 -8 51 -9 14 -74 27 -85 17z m78 -50 c3 -20 4 -38 2 -41 -3 -2 -21 3
-41 11 -28 12 -36 21 -36 40 0 23 4 26 34 26 31 0 34 -3 41 -36z"/>
</g>
</svg>
